PathFileType	4	(X/Y/Z)	/Users/itak/Documents/Research/Walk-IL/dataset/trc/00562_00009.trc
DataRate	CameraRate	NumFrames	NumMarkers	Units	OrigDataRate	OrigDataStartFrame	OrigNumFrames
100.000000	100.000000	4	53	mm	100.000000	156	416
Frame#	Time	RPSI			LPSI			L3			STRN			T10			C7			CLAV			RBAK			LBAK			LSHO			LUPA			LAEL			LAOL			LWTS			LWPS			LFRA			LHPS			LHTS			RSHO			RUPA			RAEL			RAOL			RWTS			RWPS			RFRA			RIFD			RHTS			RHPS			RBHD			LFHD			RFHD			LBHD			LHIP			RHIP			RASI			LASI			LKNE			LTHI			LANK			LTIP			LTOE			LMT1			LMT5			LHEE			RKNE			RTHI			RANK			RTIP			RTOE			RMT1			RMT5			RHEE			LIFD			
		X1	Y1	Z1	X2	Y2	Z2	X3	Y3	Z3	X4	Y4	Z4	X5	Y5	Z5	X6	Y6	Z6	X7	Y7	Z7	X8	Y8	Z8	X9	Y9	Z9	X10	Y10	Z10	X11	Y11	Z11	X12	Y12	Z12	X13	Y13	Z13	X14	Y14	Z14	X15	Y15	Z15	X16	Y16	Z16	X17	Y17	Z17	X18	Y18	Z18	X19	Y19	Z19	X20	Y20	Z20	X21	Y21	Z21	X22	Y22	Z22	X23	Y23	Z23	X24	Y24	Z24	X25	Y25	Z25	X26	Y26	Z26	X27	Y27	Z27	X28	Y28	Z28	X29	Y29	Z29	X30	Y30	Z30	X31	Y31	Z31	X32	Y32	Z32	X33	Y33	Z33	X34	Y34	Z34	X35	Y35	Z35	X36	Y36	Z36	X37	Y37	Z37	X38	Y38	Z38	X39	Y39	Z39	X40	Y40	Z40	X41	Y41	Z41	X42	Y42	Z42	X43	Y43	Z43	X44	Y44	Z44	X45	Y45	Z45	X46	Y46	Z46	X47	Y47	Z47	X48	Y48	Z48	X49	Y49	Z49	X50	Y50	Z50	X51	Y51	Z51	X52	Y52	Z52	X53	Y53	Z53	

157	1.56	-1300.89501953125	961.4647216796875	-345.8433837890625	-1267.073974609375	986.2092895507812	-471.9520568847656	-1253.451293945312	1077.060791015625	-403.851806640625	-961.56298828125	1176.80810546875	-359.7317810058594	-1211.018310546875	1195.037109375	-404.9910888671875	-1067.2890625	1435.72119140625	-383.9741821289062	-938.525146484375	1284.774291992188	-361.9455261230469	-1188.571899414062	1348.696044921875	-311.1318969726562	-1102.753540039062	1395.424072265625	-482.2031860351562	-987.3916015625	1383.364501953125	-540.4576416015625	-1005.187072753906	1262.54833984375	-622.9520874023438	-995.268798828125	1044.205444335938	-645.4505004882812	-1095.910522460938	1033.898071289062	-627.336669921875	-880.8760986328125	848.5687255859375	-522.1119995117188	-898.8480224609375	800.9442138671875	-592.9175415039062	-959.4357299804688	966.3856201171875	-629.2031860351562	-878.3909912109375	749.5885009765625	-570.0624389648438	-840.1753540039062	778.2311401367188	-520.6280517578125	-1047.310424804688	1393.770263671875	-220.7557983398438	-1101.1416015625	1349.649658203125	-158.182373046875	-1245.908081054688	1102.519897460938	-112.5746841430664	-1301.808349609375	1110.177490234375	-143.4093627929688	-1189.691772460938	852.5164794921875	-148.2704620361328	-1249.496459960938	851.2100219726562	-89.75984954833984	-1259.1923828125	1047.703369140625	-105.4799652099609	-1243.933959960938	708.263427734375	-153.4789428710938	-1190.536010742188	759.71875	-120.1935424804688	-1252.735229492188	777.808349609375	-80.23412322998047	-964.034423828125	1571.482177734375	-307.2220764160156	-778.1119384765625	1552.116577148438	-398.2127075195312	-831.51416015625	1554.937622070312	-264.2008056640625	-897.2408447265625	1564.440795898438	-458.3312072753906	-1125.8349609375	905.6883544921875	-583.661376953125	-1211.255126953125	874.997802734375	-211.1480865478516	-1115.806884765625	889.6746215820312	-251.6011199951172	-1051.0634765625	912.4121704101562	-520.3245849609375	-1172.831909179688	454.7550964355469	-524.532470703125	-1139.46435546875	619.996337890625	-558.75146484375	-1390.66455078125	27.65706634521484	-577.1845703125	-1306.537475585938	234.2271728515625	-566.5711059570312	-1212.828369140625	45.55490493774414	-457.0989379882812	-1291.5400390625	41.92257308959961	-444.4387512207031	-1269.875244140625	33.9178466796875	-550.18115234375	-1474.3330078125	19.8684139251709	-547.8778076171875	-963.9517211914062	526.2443237304688	-142.9286346435547	-1136.757934570312	761.0980834960938	-182.3394317626953	-1069.87548828125	56.24160003662109	-222.2370452880859	-952.4386596679688	376.6505737304688	-156.3980255126953	-860.2516479492188	97.204833984375	-167.1962738037109	-895.6666259765625	82.69831848144531	-231.1901397705078	-961.3494262695312	76.88902282714844	-149.3741302490234	-1093.165405273438	39.84580612182617	-294.7873229980469	-871.2208251953125	686.7201538085938	-504.8357543945312	
158	1.57	-1291.148193359375	959.0947265625	-341.779541015625	-1258.3623046875	984.19091796875	-468.03759765625	-1243.331787109375	1074.7802734375	-399.7478332519531	-951.20947265625	1172.841552734375	-355.4679870605469	-1200.302734375	1192.560791015625	-400.7982788085938	-1055.26318359375	1432.432250976562	-378.7036743164062	-927.3445434570312	1280.684692382812	-356.9578552246094	-1177.00927734375	1345.7666015625	-306.1303405761719	-1090.838989257812	1392.887573242188	-477.336181640625	-975.0525512695312	1379.962890625	-535.1879272460938	-993.36083984375	1258.9716796875	-617.3825073242188	-985.0863647460938	1040.868041992188	-639.4964599609375	-1085.988403320312	1031.033569335938	-621.7693481445312	-871.5127563476562	846.0345458984375	-514.6079711914062	-889.0935668945312	798.0278930664062	-585.362060546875	-949.455810546875	963.2321166992188	-622.7949829101562	-868.6446533203125	746.860107421875	-562.2073974609375	-830.7122802734375	775.6904907226562	-512.745849609375	-1035.532958984375	1389.805786132812	-215.4849243164062	-1089.707397460938	1346.099731445312	-153.0494995117188	-1237.7265625	1100.753173828125	-108.1258087158203	-1293.492797851562	1109.451538085938	-138.9598388671875	-1186.16748046875	849.6900634765625	-144.7266387939453	-1245.982055664062	849.4119873046875	-86.07993316650391	-1252.008666992188	1046.212890625	-101.1365203857422	-1243.932373046875	707.802734375	-151.5185546875	-1189.322143554688	756.4422607421875	-117.014892578125	-1250.99072265625	775.8845825195312	-76.92350769042969	-951.8924560546875	1567.60302734375	-301.6576232910156	-766.0009155273438	1547.644165039062	-392.6106262207031	-819.4400634765625	1550.546997070312	-258.5381774902344	-885.0780639648438	1560.4140625	-452.7483825683594	-1118.941284179688	903.9558715820312	-581.4813842773438	-1200.635620117188	872.1625366210938	-208.2734985351562	-1105.321899414062	886.2816162109375	-249.4214630126953	-1043.190795898438	909.6327514648438	-518.6027221679688	-1170.084594726562	453.2536315917969	-525.0122680664062	-1135.226928710938	618.3543090820312	-558.3626708984375	-1390.598754882812	27.39799118041992	-577.1200561523438	-1305.32421875	233.7551879882812	-566.6314086914062	-1212.32080078125	43.37175750732422	-457.1383972167969	-1291.084350585938	40.952392578125	-444.3229675292969	-1269.193359375	32.95138168334961	-550.57958984375	-1474.271850585938	20.38378524780273	-547.6407470703125	-953.5726928710938	525.30029296875	-138.2013549804688	-1127.166625976562	759.723876953125	-179.0976867675781	-1054.142822265625	53.39653778076172	-216.9878540039062	-940.4437255859375	375.7493591308594	-151.1876373291016	-844.8195190429688	95.77632141113281	-162.4807281494141	-880.4088134765625	81.34497833251953	-226.3674621582031	-945.6219482421875	74.20489501953125	-144.296875	-1077.676391601562	37.46339797973633	-289.554931640625	-862.4093627929688	684.498046875	-497.2466735839844	
159	1.58	-1280.986938476562	956.7908325195312	-337.5900573730469	-1249.1572265625	981.9872436523438	-464.028076171875	-1232.66796875	1072.477661132812	-395.6723937988281	-940.49072265625	1169.071044921875	-351.0776062011719	-1189.188598632812	1190.1298828125	-396.6506652832031	-1043.005859375	1429.241088867188	-373.2271728515625	-915.8687744140625	1276.787231445312	-351.8092346191406	-1165.161376953125	1342.864379882812	-301.0233459472656	-1078.622192382812	1390.486938476562	-472.2987670898438	-962.3793334960938	1376.886596679688	-529.7000732421875	-981.1900024414062	1255.8134765625	-611.7424926757812	-974.9208984375	1037.97265625	-633.6070556640625	-1076.078247070312	1028.72119140625	-616.2313842773438	-862.3190307617188	843.8023071289062	-507.2661437988281	-879.5531616210938	795.45751953125	-577.9539794921875	-939.5555419921875	960.5160522460938	-616.4892578125	-859.2200317382812	744.4182739257812	-554.5149536132812	-821.6461181640625	773.3282470703125	-504.94189453125	-1023.539672851562	1385.88037109375	-210.0381164550781	-1078.045776367188	1342.582153320312	-147.7565307617188	-1229.241333007812	1099.001708984375	-103.6041870117188	-1284.820068359375	1108.669067382812	-134.502685546875	-1182.020263671875	846.9786987304688	-140.9200897216797	-1241.90234375	847.6898193359375	-82.21434783935547	-1244.460205078125	1044.730834960938	-96.71047210693359	-1243.100463867188	707.406494140625	-149.3443450927734	-1187.504760742188	753.2715454101562	-113.5376663208008	-1248.627075195312	774.0634155273438	-73.41884613037109	-939.5806274414062	1563.862182617188	-295.8096313476562	-753.6922607421875	1543.388427734375	-386.7067260742188	-807.2061767578125	1546.307983398438	-252.5715789794922	-872.7164916992188	1556.589233398438	-446.8756408691406	-1111.482299804688	901.8483276367188	-578.9989013671875	-1189.597412109375	869.5315551757812	-205.1163635253906	-1094.42431640625	883.189697265625	-247.0122985839844	-1034.873901367188	906.6106567382812	-516.5982055664062	-1167.201049804688	451.62548828125	-525.0946044921875	-1130.617919921875	616.521240234375	-557.4989013671875	-1390.56494140625	27.15677261352539	-576.9766235351562	-1304.018310546875	233.2406616210938	-566.4653930664062	-1211.940307617188	41.37275695800781	-456.898193359375	-1290.804809570312	40.11521148681641	-444.0182189941406	-1268.607543945312	32.23493957519531	-550.769775390625	-1474.306030273438	21.07100105285645	-547.4757080078125	-943.1676635742188	523.927490234375	-133.5685272216797	-1117.018188476562	758.3552856445312	-175.6365051269531	-1039.398681640625	50.41662979125977	-212.1776733398438	-928.739501953125	374.4131469726562	-146.2726135253906	-830.1495971679688	93.31668853759766	-158.5517883300781	-866.087646484375	79.27264404296875	-222.2758941650391	-930.66162109375	70.79814147949219	-139.8393707275391	-1063.3603515625	35.21282577514648	-284.7500610351562	-853.9951171875	682.4539794921875	-489.7355346679688	
160	1.59	-1270.432495117188	954.5599365234375	-333.2882995605469	-1239.46044921875	979.5988159179688	-459.9354858398438	-1221.4580078125	1070.14111328125	-391.6569213867188	-929.418701171875	1165.472045898438	-346.5331726074219	-1177.687744140625	1187.753295898438	-392.5479431152344	-1030.51416015625	1426.146118164062	-367.5364379882812	-904.1116943359375	1273.05517578125	-346.4799499511719	-1153.0380859375	1340.000244140625	-295.8242492675781	-1066.090942382812	1388.214477539062	-467.0819091796875	-949.3699951171875	1374.1201171875	-523.984130859375	-968.687744140625	1253.087768554688	-606.0530395507812	-964.7757568359375	1035.542846679688	-627.8507690429688	-1066.19384765625	1026.988647460938	-610.8211669921875	-853.3242797851562	841.8900756835938	-500.1494750976562	-870.2443237304688	793.2448120117188	-570.7526245117188	-929.7473754882812	958.257568359375	-610.3493041992188	-850.1345825195312	742.2905883789062	-547.0231323242188	-812.9400024414062	771.2288208007812	-497.2784423828125	-1011.34375	1381.984985351562	-204.4081420898438	-1066.181640625	1339.082763671875	-142.2980346679688	-1220.478881835938	1097.258911132812	-98.99275207519531	-1275.8193359375	1107.799072265625	-130.0241394042969	-1177.135131835938	844.3937377929688	-136.8138885498047	-1237.1455078125	846.0198364257812	-78.14607238769531	-1236.552612304688	1043.240112304688	-92.18660736083984	-1241.2080078125	706.9993896484375	-146.8642730712891	-1184.823608398438	750.2835083007812	-109.7407150268555	-1245.462524414062	772.3192138671875	-69.69269561767578	-927.0966796875	1560.243896484375	-289.6744079589844	-741.187255859375	1539.334838867188	-380.4997863769531	-794.8071899414062	1542.220336914062	-246.3080749511719	-860.1578979492188	1552.950927734375	-440.712158203125	-1103.385864257812	899.3197021484375	-576.1905517578125	-1178.183837890625	867.1112060546875	-201.6663208007812	-1083.16357421875	880.384033203125	-244.3165130615234	-1026.118408203125	903.331298828125	-514.308349609375	-1164.122314453125	449.8634643554688	-524.7622680664062	-1125.589599609375	614.4774169921875	-556.1483764648438	-1390.583374023438	26.93018531799316	-576.7817993164062	-1302.627807617188	232.693115234375	-566.0743408203125	-1211.675048828125	39.61954116821289	-456.4790649414062	-1290.673217773438	39.42122268676758	-443.6177673339844	-1268.155639648438	31.72626686096191	-550.7984008789062	-1474.467651367188	21.95841026306152	-547.396484375	-932.7632446289062	522.1085205078125	-129.017333984375	-1106.324340820312	756.944580078125	-171.9404907226562	-1025.852905273438	47.35464096069336	-207.9323425292969	-917.3788452148438	372.59619140625	-141.6993560791016	-816.3986206054688	89.72837066650391	-155.5246276855469	-852.8699340820312	76.42716217041016	-219.0347900390625	-916.6528930664062	66.69237518310547	-136.1378021240234	-1050.413208007812	33.12493515014648	-280.4998474121094	-845.9410400390625	680.6728515625	-482.36474609375	
